<svg xmlns="http://www.w3.org/2000/svg" viewBox="0 0 100 100" width="512" height="512" role="img" aria-label="Carino Ping"><path d="M 56.61 32.37 A 25.38 25.38 0 1 0 56.61 67.63" fill="none" stroke="#eab308" stroke-width="11.94" stroke-linecap="butt"/><path d="M 85.24 30.59 H 89.12 V 34.47 H 85.24 Z M 89.12 30.59 H 93.00 V 34.47 H 89.12 Z M 85.24 34.47 H 89.12 V 38.35 H 85.24 Z M 89.12 34.47 H 93.00 V 38.35 H 89.12 Z M 69.71 38.35 H 73.59 V 42.24 H 69.71 Z M 73.59 38.35 H 77.47 V 42.24 H 73.59 Z M 77.47 38.35 H 81.35 V 42.24 H 77.47 Z M 81.35 38.35 H 85.24 V 42.24 H 81.35 Z M 85.24 38.35 H 89.12 V 42.24 H 85.24 Z M 89.12 38.35 H 93.00 V 42.24 H 89.12 Z M 69.71 42.24 H 73.59 V 46.12 H 69.71 Z M 73.59 42.24 H 77.47 V 46.12 H 73.59 Z M 77.47 42.24 H 81.35 V 46.12 H 77.47 Z M 81.35 42.24 H 85.24 V 46.12 H 81.35 Z M 85.24 42.24 H 89.12 V 46.12 H 85.24 Z M 89.12 42.24 H 93.00 V 46.12 H 89.12 Z M 69.71 53.88 H 73.59 V 57.76 H 69.71 Z M 73.59 53.88 H 77.47 V 57.76 H 73.59 Z M 77.47 53.88 H 81.35 V 57.76 H 77.47 Z M 81.35 53.88 H 85.24 V 57.76 H 81.35 Z M 85.24 53.88 H 89.12 V 57.76 H 85.24 Z M 89.12 53.88 H 93.00 V 57.76 H 89.12 Z M 69.71 57.76 H 73.59 V 61.65 H 69.71 Z M 73.59 57.76 H 77.47 V 61.65 H 73.59 Z M 77.47 57.76 H 81.35 V 61.65 H 77.47 Z M 81.35 57.76 H 85.24 V 61.65 H 81.35 Z M 85.24 57.76 H 89.12 V 61.65 H 85.24 Z M 89.12 57.76 H 93.00 V 61.65 H 89.12 Z M 69.71 61.65 H 73.59 V 65.53 H 69.71 Z M 73.59 61.65 H 77.47 V 65.53 H 73.59 Z M 69.71 65.53 H 73.59 V 69.41 H 69.71 Z M 73.59 65.53 H 77.47 V 69.41 H 73.59 Z" fill="#eab308"/></svg>